<svg id="Camada_2" data-name="Camada 2" xmlns="http://www.w3.org/2000/svg" width="34.766" height="29.01" viewBox="0 0 34.766 29.01">
  <g id="Camada_1" data-name="Camada 1">
    <path id="Path_93" data-name="Path 93" d="M20.089,14.584a8.558,8.558,0,0,0-1.78-.549,9.6,9.6,0,0,1-1.216-.371,1.587,1.587,0,0,1-.623-.4.816.816,0,0,1-.193-.564.845.845,0,0,1,.386-.756,1.913,1.913,0,0,1,1.068-.267,1.884,1.884,0,0,1,1.038.267,1.009,1.009,0,0,1,.489.667.356.356,0,0,0,.356.222h1.172a.252.252,0,0,0,.267-.267,1.973,1.973,0,0,0-.326-.934,2.759,2.759,0,0,0-.875-.845,3.411,3.411,0,0,0-1.379-.475V9.437a.282.282,0,0,0-.3-.3H17.4a.3.3,0,0,0-.208.074.282.282,0,0,0-.089.222v.86a3.248,3.248,0,0,0-1.913.816,2.165,2.165,0,0,0-.7,1.632,2,2,0,0,0,.682,1.632,5.251,5.251,0,0,0,2.136.92q.875.237,1.335.4a1.854,1.854,0,0,1,.682.386.756.756,0,0,1,.222.564.9.9,0,0,1-.445.8,2.343,2.343,0,0,1-1.29.3,2.21,2.21,0,0,1-1.2-.282,1.32,1.32,0,0,1-.578-.712.578.578,0,0,0-.148-.178.4.4,0,0,0-.222,0H14.557a.267.267,0,0,0-.193.074.252.252,0,0,0-.074.178,2.091,2.091,0,0,0,.356,1.068,2.6,2.6,0,0,0,.964.845,3.975,3.975,0,0,0,1.483.43v.86a.282.282,0,0,0,.089.222.3.3,0,0,0,.208.074h.771a.282.282,0,0,0,.3-.3v-.86a3.678,3.678,0,0,0,2.091-.8,2.2,2.2,0,0,0,.771-1.75,2.151,2.151,0,0,0-.311-1.2A2.284,2.284,0,0,0,20.089,14.584Z" transform="translate(6.905 4.416)" fill="#f18500"/>
    <path id="Path_94" data-name="Path 94" d="M24.725,9.255H20.943V5.443A.742.742,0,0,0,20.2,4.7h-.92V.742A.742.742,0,0,0,18.54,0H.742A.742.742,0,0,0,0,.742V5.3a.742.742,0,0,0,.742.742h.979V10a.742.742,0,0,0,.742.742H3.2v3.085H.979a.742.742,0,0,0-.742.742V28.181a.742.742,0,0,0,.742.742h17.8a.742.742,0,0,0,.742-.742v-.756A9.878,9.878,0,1,0,24.725,9.255ZM1.483,1.483H17.8v3.07H1.483ZM3.2,6.185H19.519v3.07H3.2Zm1.483,4.553H19.519a9.937,9.937,0,0,0-3.115,3.07H4.687ZM15.069,22.93H1.721V19.86H14.832a9.8,9.8,0,0,0,.727,3.07ZM1.721,15.292h13.9a9.8,9.8,0,0,0-.742,3.07H1.721ZM18.036,27.484H1.721v-3.07H16.389a9.893,9.893,0,0,0,1.587,1.913Zm6.749,0a8.365,8.365,0,0,1-7.253-12.548.727.727,0,0,0,.074-.133,8.365,8.365,0,1,1,7.179,12.681Z" fill="#f18500"/>
  </g>
</svg>
