<svg id="Component_6_2" data-name="Component 6 – 2" xmlns="http://www.w3.org/2000/svg" width="55" height="55" viewBox="0 0 55 55">
  <path id="path2295" d="M56.046,42.368l-12.5,4.178c.527,5.5,2.145,10.719,4.863,14.524a21.831,21.831,0,0,0,7.64,6.807,21.88,21.88,0,0,0,7.64-6.807c2.72-3.807,4.331-9.017,4.857-14.524Z" transform="translate(-28.924 -27.316)" fill="#f18500"/>
  <g id="layer1">
    <path id="path2295-2" data-name="path2295" d="M27.992.529a2.75,2.75,0,0,0-.833.14L2.409,8.919a2.75,2.75,0,0,0-1.88,2.61,50.916,50.916,0,0,0,9.792,29.443c5.425,7.595,11.67,12.693,16.838,14.416a2.75,2.75,0,0,0,1.74,0c5.168-1.723,11.413-6.821,16.838-14.416a50.915,50.915,0,0,0,9.791-29.443,2.75,2.75,0,0,0-1.88-2.61L28.9.669a2.75,2.75,0,0,0-.908-.14Zm.027,11a2.75,2.75,0,0,1,.87.14l13.766,4.587a2.75,2.75,0,0,1,1.864,2.6,29.511,29.511,0,0,1-5.661,17.074c-3.133,4.387-6.634,7.331-9.969,8.443a2.75,2.75,0,0,1-1.724,0c-3.335-1.112-6.835-4.056-9.969-8.443A29.51,29.51,0,0,1,11.534,18.86a2.75,2.75,0,0,1,1.864-2.6l13.766-4.587a2.75,2.75,0,0,1,.854-.14Z" transform="translate(-0.529 -0.529)" fill="#3b515e"/>
  </g>
</svg>
