<svg xmlns="http://www.w3.org/2000/svg" width="89" height="89" viewBox="0 0 89 89">
  <g id="Group_106" data-name="Group 106" transform="translate(-166 -1661)">
    <circle id="Ellipse_13" data-name="Ellipse 13" cx="44.5" cy="44.5" r="44.5" transform="translate(166 1661)" fill="#3b515e"/>
    <g id="iconfinder_news_465070" transform="translate(153.913 1682)">
      <path id="Path_103" data-name="Path 103" d="M140.748,72.3v31.714a5.72,5.72,0,0,1-5.695,5.7H112.012a5.444,5.444,0,0,1-1.512-.233,5.555,5.555,0,0,0,5.247,3.837h23.33a5.574,5.574,0,0,0,5.555-5.555V77.575A5.56,5.56,0,0,0,140.748,72.3Z" transform="translate(-67.635 -65.55)" fill="#f18500"/>
      <path id="Path_104" data-name="Path 104" d="M64.776,0H41.455A5.574,5.574,0,0,0,35.9,5.555v30.2a5.574,5.574,0,0,0,5.555,5.555h23.33a5.574,5.574,0,0,0,5.555-5.555V5.555A5.582,5.582,0,0,0,64.776,0ZM66.55,32.657a4.387,4.387,0,0,1-4.369,4.369H43.835a4.387,4.387,0,0,1-4.369-4.369V8.906a4.387,4.387,0,0,1,4.369-4.369H62.19a4.387,4.387,0,0,1,4.369,4.369v23.75Z" fill="#fff"/>
      <g id="Group_8" data-name="Group 8" transform="translate(42.874 9.074)">
        <path id="Path_105" data-name="Path 105" d="M193.686,99.1H181.615a.916.916,0,0,1-.915-.915v-.065a.916.916,0,0,1,.915-.915h12.071a.916.916,0,0,1,.915.915v.065A.91.91,0,0,1,193.686,99.1Z" transform="translate(-174.156 -97.2)" fill="#fff"/>
        <path id="Path_106" data-name="Path 106" d="M130.131,156.8H111.515a.916.916,0,0,1-.915-.915v-.065a.916.916,0,0,1,.915-.915H130.14a.916.916,0,0,1,.915.915v.065A.931.931,0,0,1,130.131,156.8Z" transform="translate(-110.6 -149.513)" fill="#fff"/>
        <path id="Path_107" data-name="Path 107" d="M130.131,214.4H111.515a.916.916,0,0,1-.915-.915v-.065a.916.916,0,0,1,.915-.915H130.14a.916.916,0,0,1,.915.915v.065A.924.924,0,0,1,130.131,214.4Z" transform="translate(-110.6 -201.736)" fill="#fff"/>
        <path id="Path_108" data-name="Path 108" d="M130.131,272.1H111.515a.916.916,0,0,1-.915-.915v-.065a.916.916,0,0,1,.915-.915H130.14a.916.916,0,0,1,.915.915v.065A.924.924,0,0,1,130.131,272.1Z" transform="translate(-110.6 -254.049)" fill="#fff"/>
        <path id="Path_109" data-name="Path 109" d="M130.131,329.8H111.515a.916.916,0,0,1-.915-.915v-.065a.916.916,0,0,1,.915-.915H130.14a.916.916,0,0,1,.915.915v.065A.931.931,0,0,1,130.131,329.8Z" transform="translate(-110.6 -306.362)" fill="#fff"/>
      </g>
    </g>
  </g>
</svg>
